<svg width="1200" height="630" viewBox="0 0 1200 630" fill="none" xmlns="http://www.w3.org/2000/svg">
  <defs>
    <linearGradient id="bg" x1="0" y1="0" x2="1200" y2="630" gradientUnits="userSpaceOnUse">
      <stop stop-color="#060913"/>
      <stop offset="1" stop-color="#0B1324"/>
    </linearGradient>
    <radialGradient id="glow" cx="0" cy="0" r="1" gradientUnits="userSpaceOnUse" gradientTransform="translate(615 352) rotate(90) scale(180 280)">
      <stop stop-color="#D9E0F2" stop-opacity="0.32"/>
      <stop offset="1" stop-color="#D9E0F2" stop-opacity="0"/>
    </radialGradient>
    <filter id="blur" x="420" y="160" width="360" height="280" filterUnits="userSpaceOnUse" color-interpolation-filters="sRGB">
      <feGaussianBlur stdDeviation="18"/>
    </filter>
  </defs>

  <rect width="1200" height="630" fill="url(#bg)"/>
  <circle cx="614" cy="332" r="142" fill="url(#glow)" filter="url(#blur)"/>

  <g opacity="0.52" stroke="#AFC4E7" stroke-width="3" stroke-linecap="round" stroke-linejoin="round">
    <path d="M332 159C260 212 247 315 286 394C316 453 373 505 460 542"/>
    <path d="M469 227C512 217 558 232 592 270"/>
    <path d="M576 310C620 300 657 311 689 340"/>
    <path d="M471 377C512 405 566 419 626 414"/>
    <path d="M641 250C685 270 717 307 733 352"/>
  </g>

  <g font-family="Pretendard, Apple SD Gothic Neo, Noto Sans KR, sans-serif" text-anchor="middle">
    <text x="640" y="274" fill="#E7ECF8" fill-opacity="0.34" font-size="28">집에 가고 싶다</text>
    <text x="674" y="312" fill="#F4F7FD" fill-opacity="0.88" font-size="42" font-weight="700">퇴근하고 싶다</text>
    <text x="618" y="352" fill="#DFE7F7" fill-opacity="0.58" font-size="34">오늘도 길다</text>
    <text x="710" y="388" fill="#C9D4EA" fill-opacity="0.34" font-size="26">메일 또 왔다</text>
    <text x="648" y="426" fill="#C9D4EA" fill-opacity="0.25" font-size="24">회의만 늘어</text>
    <text x="760" y="462" fill="#B8C4DD" fill-opacity="0.18" font-size="20">답장하기 싫다</text>
  </g>

  <g fill="#9AA8C4" fill-opacity="0.18" font-family="Georgia, serif" font-size="18">
    <text x="890" y="164">···</text>
    <text x="934" y="204">··</text>
    <text x="862" y="236">·</text>
    <text x="948" y="276">···</text>
    <text x="884" y="332">·</text>
    <text x="918" y="372">··</text>
    <text x="846" y="420">···</text>
  </g>

  <text x="98" y="108" fill="#F3F6FD" font-family="Pretendard, Apple SD Gothic Neo, Noto Sans KR, sans-serif" font-size="28" font-weight="700">Damta</text>
  <text x="98" y="146" fill="#B2BED6" font-family="Pretendard, Apple SD Gothic Neo, Noto Sans KR, sans-serif" font-size="20">텍스트 연기로 뿜는 퇴근 전 한숨</text>
</svg>
